<svg xmlns="http://www.w3.org/2000/svg" viewBox="0 0 197.84 97.47" width="114" height="56"><g id="Ebene_2" data-name="Ebene 2"><g id="Ebene_1-2" data-name="Ebene 1"><g id="Ebene_2-2" data-name="Ebene 2"><g id="Ebene_1-2-2" data-name="Ebene 1-2"><path d="M50.41,74.45,15.17,76.9V28.32L49.7,25.91v7.61L24.93,35.24V48.06l23-1.6v7.67l-23,1.6V68.55l25.48-1.77Z" fill="#056d85"/><path d="M93,37.19l-10,.7c-.57-4.89-3.33-7.8-8.42-7.44-3.89.27-6.86,2.31-6.86,6.25s2.61,5.94,10.4,7.23c10.75,1.72,15.56,6.31,15.56,14.13,0,9.15-8.42,15-18,15.62-11.68.81-19.32-3.8-20.24-13.94l10-.7c1.06,5.28,5.17,7.74,10.12,7.4,4.46-.31,8-2.95,8-6.69,0-4.08-2.54-6.3-9.76-7.49-10-1.69-16.28-4.71-16.28-13.65S65.62,23.82,75,23.17C86.63,22.36,91.94,28.61,93,37.19Z" fill="#056d85"/><path d="M137,68.42l-35.24,2.46V22.29l34.53-2.4v7.6l-24.77,1.73V42l23-1.6v7.68l-23,1.6V62.52L137,60.75Z" fill="#056d85"/><path d="M160.18,49.46l-19.37,1.35v-1l10.49-11c5.2-5.45,6.93-8.08,6.93-11.31,0-3.79-2.43-6.64-6.85-6.33s-7.23,3.43-7.71,8.12v.43l-1.65.12V29.4c.57-5.59,4.29-9.3,9.45-9.66,5.72-.4,8.58,3.06,8.58,7.51,0,3.87-2.51,7.24-7.63,12.51l-9.14,9.47L160.18,48Z" fill="#067891"/><path d="M184.26,32.91c0,9-2.69,15.67-10.14,16.18S164,43.25,164,34.33s2.73-15.67,10.14-16.19S184.26,24,184.26,32.91Zm-1.82.13c0-8.11-2.12-13.91-8.32-13.48s-8.32,6.49-8.32,14.64,2.17,13.9,8.32,13.47,8.32-6.53,8.32-14.67Z" fill="#067891"/><path d="M194.31,3.78V76.66l-21.62,1.5V91.33L152.52,79.57,3.53,89.94V17.06L194.31,3.78M197.84,0l-3.78.26L3.28,13.54,0,13.77v80l3.77-.26,147.91-10.3,19.24,11.22,5.3,3.09v-16l18.33-1.28,3.29-.23V0Z" fill="#056d85"/></g></g></g></g></svg>