<svg id="Ebene_1" data-name="Ebene 1" xmlns="http://www.w3.org/2000/svg" viewBox="0 0 152 74.89"><defs><style>.cls-1{fill:#01794c;}.cls-2{fill:#018554;}</style></defs><title>logo</title><path class="cls-1" d="M38.7,57.22,11.63,59.1V21.77l26.53-1.85v5.79L19.13,27v9.9L36.8,35.71V41.6L19.13,42.84v9.84L38.7,51.32Z"/><path class="cls-1" d="M57.57,17.82a16.71,16.71,0,0,1,5.84.49,10.85,10.85,0,0,1,4.16,2.22,10.5,10.5,0,0,1,2.61,3.57,16.4,16.4,0,0,1,1.25,4.55l-7.67.53a7,7,0,0,0-1.92-4.39,5.75,5.75,0,0,0-4.55-1.33,6.67,6.67,0,0,0-3.77,1.35A4.12,4.12,0,0,0,52,28.26a4.05,4.05,0,0,0,1.77,3.55c1.17.82,3.25,1.48,6.22,2q6.26,1,9.11,3.63A9.36,9.36,0,0,1,72,44.64a10.21,10.21,0,0,1-1.11,4.78,11.28,11.28,0,0,1-3,3.66,15.45,15.45,0,0,1-4.43,2.45,19.45,19.45,0,0,1-5.27,1.09q-6.8.48-10.9-2.21t-4.65-8.55l7.67-.54A6.56,6.56,0,0,0,53,49.78a8.56,8.56,0,0,0,9.41-.35,4.33,4.33,0,0,0,1.77-3.55,4.53,4.53,0,0,0-1.66-3.72c-1.11-.9-3.06-1.57-5.85-2a38.93,38.93,0,0,1-5.19-1.23A13.51,13.51,0,0,1,47.51,37,7.92,7.92,0,0,1,45,34a9.86,9.86,0,0,1-.87-4.37A10.09,10.09,0,0,1,45.22,25a11.86,11.86,0,0,1,2.94-3.64,14.56,14.56,0,0,1,4.3-2.43A18.26,18.26,0,0,1,57.57,17.82Z"/><path class="cls-1" d="M105.25,52.59,78.17,54.47V17.14l26.53-1.85v5.79l-19,1.33v9.9l17.67-1.23V37L85.67,38.2v9.85l19.58-1.36Z"/><path class="cls-2" d="M118.74,38.32l-1.26.08V16.91l-6.33,4.28V19.83l5.19-3.6a6.5,6.5,0,0,1,1-.55,2.32,2.32,0,0,1,.7-.17l.73,0Z"/><path class="cls-2" d="M133.73,14a7.88,7.88,0,0,1,3.17.36A5.19,5.19,0,0,1,139.29,16a8.38,8.38,0,0,1,1.51,3.16,18,18,0,0,1,.54,4.73,26.28,26.28,0,0,1-.6,6,14.14,14.14,0,0,1-1.68,4.26,7.79,7.79,0,0,1-2.59,2.61,7.56,7.56,0,0,1-3.37,1,6,6,0,0,1-4.61-1.25,7.28,7.28,0,0,1-2.1-4.18l0-.33,1.3-.09.07.33q1,4.77,5.45,4.45a6.52,6.52,0,0,0,2.52-.7,5.84,5.84,0,0,0,2.16-2,11.74,11.74,0,0,0,1.53-3.7,26.43,26.43,0,0,0,.68-5.72l-.83,1.78a7.53,7.53,0,0,1-5.82,3.32,7.26,7.26,0,0,1-3.17-.41,6.28,6.28,0,0,1-2.31-1.55,6.59,6.59,0,0,1-1.43-2.4,9.13,9.13,0,0,1-.48-3,8.76,8.76,0,0,1,.56-3.12,8.23,8.23,0,0,1,1.58-2.59,7.83,7.83,0,0,1,2.44-1.83A8.46,8.46,0,0,1,133.73,14Zm-.15,14.65A6.83,6.83,0,0,0,136,28a6.71,6.71,0,0,0,2-1.45,7,7,0,0,0,1.33-2.14,7.28,7.28,0,0,0,.48-2.67,9,9,0,0,0-.4-2.76,6.1,6.1,0,0,0-1.18-2.18,5.06,5.06,0,0,0-1.92-1.39,5.67,5.67,0,0,0-2.59-.36,6.72,6.72,0,0,0-2.61.69,6.32,6.32,0,0,0-2,1.56,7,7,0,0,0-1.27,2.2,8,8,0,0,0-.44,2.64,8.31,8.31,0,0,0,.41,2.7,5.72,5.72,0,0,0,1.22,2.11A5.06,5.06,0,0,0,131,28.25,5.85,5.85,0,0,0,133.58,28.61Z"/><path class="cls-1" d="M149.29,2.91v56l-16.61,1.15V70.17l-15.5-9L2.71,69.1v-56L149.29,2.91M152,0l-2.9.2L2.52,10.4,0,10.58V72l2.9-.21,113.64-7.9,14.78,8.61,4.07,2.38V62.58l14.09-1,2.52-.17V0Z"/></svg>