<svg xmlns="http://www.w3.org/2000/svg" viewBox="0 0 98.28 143.55"><defs><style>.cls-1{fill:none;}.cls-2{fill:#0a5e98;}.cls-3{fill:#71b657;}</style></defs><title>karlchen2</title><g id="Logos"><g id="ESE-Logo"><path class="cls-1" d="M63.24,154.36a9.52,9.52,0,0,0,4.23-1.5,29,29,0,0,1,4.61-4.19,9.93,9.93,0,0,1,2.59-1.78c-.94.6-1.79,1.19-2.59,1.78a36.27,36.27,0,0,1-4.61,4.19c-4.88,5.65-3,9.73,2.62,7.44,5.92-2.42,6.25-3.76,9.76-6.09-9.78,7-13.06,13.66-4.42,11.28A32.33,32.33,0,0,0,82.6,162a28.16,28.16,0,0,0,11.85-1l.12-14.42c-5.44-1.32-10.76-2.28-17-5.63C72.27,138.11,54.75,155.32,63.24,154.36Z" transform="translate(-46.5 -23.62)"/><path class="cls-1" d="M104.24,130.84c.05.57.09,1.13.18,1.73-2.17-5.75-2.7-9.87-.85-16.83a37.8,37.8,0,0,1-16.69,2.49,28.59,28.59,0,0,1-8.23-1.59c0,.08,0,.17,0,.26a23.17,23.17,0,0,1-1,14.77c0,2.55-.15,5-.32,7.33a4.87,4.87,0,0,1,.5.13c8.54,3.18,13.35,5.24,16.72,5.1l0-2.52c18.08,1.76,27.33-4.39,22.05-8.91-.29-.23-.59-.46-.92-.68a8,8,0,0,1,.92.68c5.34,4.32,4.85,11.37-19.87,11.3v19.83c19.54-3.63,19.33-2.75,34.65-2,9.37.48,19-11.19-1.75-38.57C122.16,113.45,105.17,114.46,104.24,130.84Z" transform="translate(-46.5 -23.62)"/><path class="cls-1" d="M64.92,154.36c-5,4.37-6.29-3.48-2.28-6.4,3.64-2.68,8.17-8.47,12.67-9.09.16-3.43.21-7.19.13-11.33l-12.34-7.47,10.8,4.61a14.92,14.92,0,0,0,2.73-6,33.71,33.71,0,0,0-1.28-3.55A16,16,0,0,1,69,92.89c.13-3-.52-4.7-3.89-4.22-2.05.3-4.93,7-6.71,9.15.2-2.74,4.07-10.21,1.83-10.21C54.3,89.29,47.55,100,51.51,105.9c3,4.44,9.23,6.88,8.89,12.86l.71.4c-8.57,12.05-15.44,29.91-4.42,39.93,5.05,4.59,9.16,5.62,12.24,3.15C63.87,163.56,61.83,158,64.92,154.36Z" transform="translate(-46.5 -23.62)"/><path class="cls-1" d="M77.72,126.32c0,1.19,0,2.36,0,3.51a31.76,31.76,0,0,0-.26-7.3,22.06,22.06,0,0,1-1.68,3Z" transform="translate(-46.5 -23.62)"/><path class="cls-1" d="M56.85,69.74a24.18,24.18,0,0,1,5.73,2.75,14.54,14.54,0,0,1-.89-5.87c2,6,3.06,7.36,5.09,7.86-2.12-19,3.58-26.62,9.39-22.46,7.24-8.33,16.73-3.61,17.09,19.49,2.71-3.71,4.4-11.22,3.69-21.27,9.8,6.43,19.26,14.65,22.43,26.38l2.84-1.08a8.63,8.63,0,0,1,4.09-1.95c1.12-5.41.45-19.15-2.34-24.06,4.14-.92,6-.69,9.69,3.57C123,36.31,107.08,28.3,91.3,37.62c-3.49-8.5-.88-11.71,5.15-13.15l-.83.14c-7.11,1.23-18.13,5.32-19.23,16.71-5.1-2.75-12.44-4.53-17.44-5.35l7.68,5.94c-4.46.86-12.13,2.27-16.43,15.35,3.49-2.79,4.38-4.18,8.41-4.16A41.27,41.27,0,0,0,56.85,69.74Z" transform="translate(-46.5 -23.62)"/><path class="cls-2" d="M129.92,120.58c-6.45-8.67-23.49-9.46-25.73,4.19a31.56,31.56,0,0,1,3.14-11,17.34,17.34,0,0,0,3.62-3.17l.52-.23c4.16-2,12.1-8.47,11.73-21.83,2-2.42,3.47-4.13,5.65-4.45-1.86-.89-4.08-.63-5.94,2l-2-3.89c1.27,9.08-1.45,19.74-7.07,24l-.56.45c2.19-6-.84-13.16-10.5-18.47,16.29,14.75,3.89,27-11.57,28.26C72,117.91,56.46,92.59,84.06,85.5c-6.38-.44-11.18,2.08-14.09,5.89-.15-2.34-.8-4-2.68-4.53a3.82,3.82,0,0,0-4,.82A1.65,1.65,0,0,0,61.61,86a67.77,67.77,0,0,1,.85-10.31l-2.29,6.47C58,80.58,55.25,79.35,53,80.77c2.54.85,4.82,1.26,6.85,3.68,0,.63,0,1.24,0,1.84l-.36.11a17,17,0,0,0-7.08,5,7,7,0,0,1-.76-1.27c-3.38-7.46-6.57-24.68,11-17.5C64,75.81,66.46,77.49,69,79.46c-2-15.91,1.14-29.21,7.33-25.66,10.33-8.86,14.56,2.5,15.14,21.68,5.74-8,7.07-13.66,6.53-22.72a46.35,46.35,0,0,1,11.93,10c-3.3-1.48-7.21-.82-10.48,1.52l1.19,1.53c4-2.16,8.11-1.64,12.08,1.19l.15-.33c3.13,4.79,5,10.22,4.1,15.7l6.78-7.14c10.41-2.55,10.45,11.63,7.2,18.78-2,4.41-6.71,4.25-8.8,3.72l-1,2.15c5.73,1.7,11.14-3.49,12.32-6.27,3.6-8.49.56-18.58-5.07-19.91.95-8.73-.05-18-2.74-23.3,2.55-1.47,5,.91,9.87,4.59C125.9,36.05,111.6,25.56,92.32,34.73q-3.06-8.3,5.49-10.49l2.9-.49c-6.76-.86-24.45,2.59-26.52,14.44-6.38-2.78-13.37-4-20.54-4.82l10.9,8.24C53.93,43.65,49.2,53,46.5,62.22c3.41-4.13,8.85-8,9.89-6.75C55,58.09,54,67.75,54.65,69.28c-8.91-.93-9.36,11.46-5.52,20.51a10.32,10.32,0,0,0,2.27,3A12.93,12.93,0,0,0,50.9,107c2.55,4.29,8,5.88,8.08,11l-.61-.34c-14.62,28.09-8.16,38.43-5.44,41.15,1.84,1.84,5.44,4.63,8.93,5.54a13.52,13.52,0,0,0,6.84.15c0,1.35,1.44,2.67,3.54,2.69a23.67,23.67,0,0,0,10.52-3.66c1.19.22,8.56,1,11.67-.57.07.83.07,3.74.07,3.74s9.94-1.32,11-1.4c1.26-.09,4.14-.44,5.08-.54a40.31,40.31,0,0,1,8.07-.36c5.75.28,14.15.72,17.56-.12a13.39,13.39,0,0,0,6.35-3.56C148.14,153.69,143,138.1,129.92,120.58ZM50.2,57.26c4.3-13.08,12-14.49,16.43-15.35L58.95,36c5,.82,12.34,2.61,17.44,5.35,1.1-11.39,12.12-15.48,19.23-16.71l.83-.14c-6,1.44-8.64,4.66-5.15,13.15C107.08,28.3,123,36.31,133.66,53.1c-3.68-4.26-5.55-4.5-9.69-3.57,2.79,4.92,3.46,18.66,2.34,24.06a8.63,8.63,0,0,0-4.09,1.95l-2.84,1.08c-3.17-11.73-12.63-20-22.43-26.38.71,10-1,17.56-3.69,21.27C92.89,48.41,83.4,43.69,76.16,52c-5.8-4.16-11.5,3.5-9.39,22.46-2-.5-3.06-1.82-5.09-7.86a14.54,14.54,0,0,0,.89,5.87,24.18,24.18,0,0,0-5.73-2.75,41.27,41.27,0,0,1,1.76-16.64C54.58,53.07,53.69,54.47,50.2,57.26Zm27.52,72.57c0-1.15,0-2.32,0-3.51l-1.94-.83a22.06,22.06,0,0,0,1.68-3A31.76,31.76,0,0,1,77.72,129.83Zm-21,29.26c-11-10-4.15-27.88,4.42-39.93l-.71-.4c.34-6-5.89-8.42-8.89-12.86-4-5.85,2.8-16.61,8.69-18.29,2.24,0-1.63,7.47-1.83,10.21C60.15,95.69,63,89,65.07,88.68c3.37-.49,4,1.26,3.89,4.22a16,16,0,0,0,6.38,22.23,33.71,33.71,0,0,1,1.28,3.55,14.92,14.92,0,0,1-2.73,6l-10.8-4.61,12.34,7.47c.08,4.14,0,7.9-.13,11.33-4.5.62-9,6.41-12.67,9.09-4,2.92-2.75,10.77,2.28,6.4-3.09,3.63-1,9.19,4,7.88C65.85,164.71,61.74,163.68,56.69,159.09ZM94.45,161a28.16,28.16,0,0,1-11.85,1,32.33,32.33,0,0,1-7.16,3.51c-8.64,2.38-5.36-4.27,4.42-11.28-3.51,2.33-3.83,3.68-9.76,6.09-5.61,2.29-7.5-1.8-2.62-7.44a9.52,9.52,0,0,1-4.23,1.5c-8.5,1,9-16.25,14.33-13.41,6.24,3.35,11.57,4.31,17,5.63Zm37,1c-15.31-.79-15.11-1.67-34.65,2V144.11c24.73.07,25.22-7,19.87-11.3,5.28,4.51-4,10.67-22.05,8.91l0,2.52c-3.37.14-8.18-1.92-16.72-5.1a4.87,4.87,0,0,0-.5-.13c.16-2.33.27-4.78.32-7.33a23.17,23.17,0,0,0,1-14.77c0-.09,0-.17,0-.26a28.59,28.59,0,0,0,8.23,1.59,37.8,37.8,0,0,0,16.69-2.49c-1.84,7-1.32,11.08.85,16.83-.09-.6-.12-1.16-.18-1.73.92-16.38,17.91-17.38,25.45-7.43C150.44,150.79,140.82,162.46,131.44,162Z" transform="translate(-46.5 -23.62)"/><path class="cls-2" d="M69.36,81.85,70,83.38c4.19-4.87,8.33-5.39,12.08-1.19l1.19-1.53C79.17,75.84,73.5,75.33,69.36,81.85Z" transform="translate(-46.5 -23.62)"/><path class="cls-2" d="M72.09,148.68a29,29,0,0,0-4.61,4.19A36.27,36.27,0,0,0,72.09,148.68Z" transform="translate(-46.5 -23.62)"/><path class="cls-2" d="M69.48,65.73l.68,1.53c4-2.83,8.11-3.35,12.08-1.19l1.19-1.53C78.9,61.3,73.11,61.25,69.48,65.73Z" transform="translate(-46.5 -23.62)"/><path class="cls-2" d="M72.09,148.68c.79-.59,1.65-1.19,2.59-1.78A9.93,9.93,0,0,0,72.09,148.68Z" transform="translate(-46.5 -23.62)"/><path class="cls-2" d="M100.06,81.21l1.19,1.53c3.74-4.19,7.88-3.68,12.08,1.19L114,82.4C109.87,75.88,104.2,76.39,100.06,81.21Z" transform="translate(-46.5 -23.62)"/><path class="cls-3" d="M116.67,132.8a8,8,0,0,0-.92-.68C116.07,132.34,116.38,132.57,116.67,132.8Z" transform="translate(-46.5 -23.62)"/></g></g></svg>