<?xml version="1.0" encoding="utf-8"?>
<!-- Generator: Adobe Illustrator 21.1.0, SVG Export Plug-In . SVG Version: 6.00 Build 0)  -->
<svg version="1.1" id="Layer_1" xmlns="http://www.w3.org/2000/svg" xmlns:xlink="http://www.w3.org/1999/xlink" x="0px" y="0px"
	 viewBox="0 0 98.3 143.6" style="enable-background:new 0 0 98.3 143.6;" xml:space="preserve">
<style type="text/css">
	.st0{fill:none;stroke:#CB6040;stroke-miterlimit:10;}
	.st1{fill:#CB6040;stroke:#CB6040;stroke-miterlimit:10;}
	.st2{fill:#CB6040;stroke:#CB6040;stroke-miterlimit:10;}
</style>
<title>karlchen2</title>
<g id="Logos">
	<g id="ESE-Logo">
		<path class="st0" d="M16.7,130.7c1.5-0.2,3-0.7,4.2-1.5c1.4-1.6,2.9-3,4.6-4.2c0.8-0.7,1.6-1.3,2.6-1.8c-0.9,0.6-1.8,1.2-2.6,1.8
			c-1.4,1.5-3,2.9-4.6,4.2c-4.9,5.6-3,9.7,2.6,7.4c5.9-2.4,6.2-3.8,9.8-6.1c-9.8,7-13.1,13.7-4.4,11.3c2.5-0.9,4.9-2,7.2-3.5
			c4,0.5,8,0.2,11.8-1l0.1-14.4c-5.4-1.3-10.8-2.3-17-5.6C25.8,114.5,8.2,131.7,16.7,130.7z"/>
		<path class="st0" d="M57.7,107.2c0.1,0.6,0.1,1.1,0.2,1.7c-2.2-5.8-2.7-9.9-0.8-16.8c-5.3,2.1-11,2.9-16.7,2.5
			c-2.8-0.1-5.6-0.7-8.2-1.6c0,0.1,0,0.2,0,0.3c1.3,4.9,0.9,10.1-1,14.8c0,2.6-0.2,5-0.3,7.3c0.2,0,0.3,0.1,0.5,0.1
			c8.5,3.2,13.3,5.2,16.7,5.1v-2.5c18.1,1.8,27.3-4.4,22-8.9c-0.3-0.2-0.6-0.5-0.9-0.7c0.3,0.2,0.6,0.4,0.9,0.7
			c5.3,4.3,4.8,11.4-19.9,11.3v19.8c19.5-3.6,19.3-2.8,34.7-2c9.4,0.5,19-11.2-1.8-38.6C75.7,89.8,58.7,90.8,57.7,107.2z"/>
		<path class="st0" d="M18.4,130.7c-5,4.4-6.3-3.5-2.3-6.4c3.6-2.7,8.2-8.5,12.7-9.1c0.2-3.4,0.2-7.2,0.1-11.3l-12.3-7.5l10.8,4.6
			c1.3-1.8,2.3-3.8,2.7-6c-0.4-1.2-0.8-2.4-1.3-3.6C21,87.4,18,77.7,22.2,69.9c0.1-0.2,0.2-0.4,0.3-0.6c0.1-3-0.5-4.7-3.9-4.2
			c-2,0.3-4.9,7-6.7,9.2C12.1,71.5,16,64,13.7,64C7.8,65.7,1,76.4,5,82.3c3,4.4,9.2,6.9,8.9,12.9l0.7,0.4
			c-8.6,12.1-15.4,29.9-4.4,39.9c5,4.6,9.2,5.6,12.2,3.1C17.4,139.9,15.3,134.4,18.4,130.7z"/>
		<path class="st0" d="M31.2,102.7c0,1.2,0,2.4,0,3.5c0.2-2.4,0.1-4.9-0.3-7.3c-0.5,1-1,2-1.7,3L31.2,102.7z"/>
		<path class="st0" d="M10.3,46.1c2,0.7,3.9,1.6,5.7,2.8c-0.7-1.9-1-3.9-0.9-5.9c2,6,3.1,7.4,5.1,7.9c-2.1-19,3.6-26.6,9.4-22.5
			c7.2-8.3,16.7-3.6,17.1,19.5c2.7-3.7,4.4-11.2,3.7-21.3C60.2,33,69.7,41.3,72.9,53l2.8-1.1c1.2-1,2.6-1.7,4.1-1.9
			c1.1-5.4,0.4-19.2-2.3-24.1c4.1-0.9,6-0.7,9.7,3.6C76.5,12.7,60.6,4.7,44.8,14C41.3,5.5,43.9,2.3,50,0.8L49.1,1
			C42,2.2,31,6.3,29.9,17.7c-5.1-2.7-12.4-4.5-17.4-5.3l7.7,5.9C15.7,19.1,8,20.6,3.7,33.6c3.5-2.8,4.4-4.2,8.4-4.2
			C10.4,34.8,9.8,40.5,10.3,46.1z"/>
		<path class="st1" d="M83.4,97c-6.4-8.7-23.5-9.5-25.7,4.2c0.4-3.8,1.4-7.6,3.1-11c1.3-0.9,2.6-2,3.6-3.2l0.5-0.2
			c4.2-2,12.1-8.5,11.7-21.8c2-2.4,3.5-4.1,5.6-4.4c-1.9-0.9-4.1-0.6-5.9,2l-2-3.9c1.3,9.1-1.4,19.7-7.1,24L66.8,83
			c2.2-6-0.8-13.2-10.5-18.5c16.3,14.8,3.9,27-11.6,28.3C25.5,94.3,10,69,37.6,61.9c-6.4-0.4-11.2,2.1-14.1,5.9
			c-0.2-2.3-0.8-4-2.7-4.5c-1.4-0.5-2.9-0.2-4,0.8c0-0.9-0.7-1.7-1.6-1.7c0,0,0,0-0.1,0c0-3.5,0.3-6.9,0.8-10.3l-2.3,6.5
			c-2.2-1.6-4.9-2.8-7.2-1.4c2.5,0.8,4.8,1.3,6.8,3.7c0,0.6,0,1.2,0,1.8L13,62.8c-2.8,1-5.2,2.7-7.1,5c-0.3-0.4-0.6-0.8-0.8-1.3
			C1.8,59-1.4,41.8,16.1,49c1.4,3.2,3.8,4.9,6.4,6.8c-2-15.9,1.1-29.2,7.3-25.7c10.3-8.9,14.6,2.5,15.1,21.7
			c5.7-8,7.1-13.7,6.5-22.7c4.5,2.6,8.5,6,11.9,10c-3.3-1.5-7.2-0.8-10.5,1.5l1.2,1.5c4-2.2,8.1-1.6,12.1,1.2l0.2-0.3
			c3.1,4.8,5,10.2,4.1,15.7l6.8-7.1c10.4-2.6,10.4,11.6,7.2,18.8c-2,4.4-6.7,4.2-8.8,3.7l-1,2.2C80.4,78,85.8,72.8,87,70
			c3.6-8.5,0.6-18.6-5.1-19.9c0.9-8.7-0.1-18-2.7-23.3c2.5-1.5,5,0.9,9.9,4.6C79.4,12.4,65.1,1.9,45.8,11.1c-2-5.5-0.2-9,5.5-10.5
			l2.9-0.5c-6.8-0.9-24.5,2.6-26.5,14.4c-6.4-2.8-13.4-4-20.5-4.8L18.1,18C7.4,20,2.7,29.4,0,38.6c3.4-4.1,8.8-8,9.9-6.8
			c-1.4,2.6-2.4,12.3-1.7,13.8c-8.9-0.9-9.4,11.5-5.5,20.5c0.6,1.1,1.3,2.1,2.3,3c-3,4.2-3.2,9.8-0.5,14.2c2.5,4.3,8,5.9,8.1,11
			L11.9,94c-14.6,28.1-8.2,38.4-5.4,41.2c1.8,1.8,5.4,4.6,8.9,5.5c2.2,0.6,4.6,0.7,6.8,0.1c0,1.4,1.4,2.7,3.5,2.7
			c3.7-0.4,7.4-1.6,10.5-3.7c1.2,0.2,8.6,1,11.7-0.6c0.1,0.8,0.1,3.7,0.1,3.7s9.9-1.3,11-1.4c1.3-0.1,4.1-0.4,5.1-0.5
			c2.7-0.4,5.4-0.5,8.1-0.4c5.8,0.3,14.1,0.7,17.6-0.1c2.4-0.6,4.6-1.8,6.4-3.6C101.6,130.1,96.5,114.5,83.4,97z M3.7,33.6
			c4.3-13.1,12-14.5,16.4-15.4l-7.7-5.9c5,0.8,12.3,2.6,17.4,5.3C31,6.3,42,2.2,49.1,1l0.8-0.1c-6,1.4-8.6,4.7-5.2,13.2
			c15.8-9.4,31.7-1.3,42.4,15.4c-3.7-4.3-5.6-4.5-9.7-3.6c2.8,4.9,3.5,18.7,2.3,24.1c-1.5,0.3-2.9,0.9-4.1,1.9L72.9,53
			c-3.2-11.7-12.6-20-22.4-26.4c0.7,10-1,17.6-3.7,21.3c-0.4-23.1-9.9-27.8-17.1-19.5c-5.8-4.2-11.5,3.5-9.4,22.5
			c-2-0.5-3.1-1.8-5.1-7.9c-0.1,2,0.2,4,0.9,5.9c-1.8-1.2-3.7-2.1-5.7-2.8c-0.6-5.6,0-11.3,1.8-16.6C8.1,29.4,7.2,30.8,3.7,33.6z
			 M31.2,106.2c0-1.1,0-2.3,0-3.5l-1.9-0.8c0.6-1,1.2-2,1.7-3C31.3,101.3,31.4,103.8,31.2,106.2z M10.2,135.5
			c-11-10-4.2-27.9,4.4-39.9l-0.7-0.4c0.3-6-5.9-8.4-8.9-12.9C1,76.4,7.8,65.7,13.7,64c2.2,0-1.6,7.5-1.8,10.2
			c1.8-2.1,4.6-8.8,6.7-9.1c3.4-0.5,4,1.3,3.9,4.2c-4.5,7.6-1.9,17.4,5.8,21.9c0.2,0.1,0.4,0.2,0.6,0.3c0.5,1.2,0.9,2.3,1.3,3.6
			c-0.5,2.2-1.4,4.2-2.7,6l-10.8-4.6l12.3,7.5c0.1,4.1,0,7.9-0.1,11.3c-4.5,0.6-9,6.4-12.7,9.1c-4,2.9-2.8,10.8,2.3,6.4
			c-3.1,3.6-1,9.2,4,7.9C19.3,141.1,15.2,140.1,10.2,135.5L10.2,135.5z M47.9,137.4c-3.8,1.2-7.9,1.5-11.8,1
			c-2.2,1.5-4.6,2.6-7.2,3.5c-8.6,2.4-5.4-4.3,4.4-11.3c-3.5,2.3-3.8,3.7-9.8,6.1c-5.6,2.3-7.5-1.8-2.6-7.4
			c-1.3,0.8-2.7,1.3-4.2,1.5c-8.5,1,9-16.3,14.3-13.4c6.2,3.4,11.6,4.3,17,5.6L47.9,137.4z M84.9,138.4c-15.3-0.8-15.1-1.7-34.7,2
			v-19.9c24.7,0.1,25.2-7,19.9-11.3c5.3,4.5-4,10.7-22.1,8.9v2.5c-3.4,0.1-8.2-1.9-16.7-5.1c-0.2-0.1-0.3-0.1-0.5-0.1
			c0.2-2.3,0.3-4.8,0.3-7.3c1.9-4.7,2.3-9.9,1-14.8c0-0.1,0-0.2,0-0.3c2.7,0.9,5.4,1.5,8.2,1.6c5.7,0.4,11.4-0.4,16.7-2.5
			c-1.8,7-1.3,11.1,0.8,16.8c-0.1-0.6-0.1-1.2-0.2-1.7c0.9-16.4,17.9-17.4,25.4-7.4C103.9,127.2,94.3,138.8,84.9,138.4L84.9,138.4z"
			/>
		<path class="st1" d="M22.9,58.2l0.6,1.5c4.2-4.9,8.3-5.4,12.1-1.2l1.2-1.5C32.7,52.2,27,51.7,22.9,58.2z"/>
		<path class="st1" d="M25.6,125.1c-1.7,1.2-3.2,2.6-4.6,4.2C22.6,128,24.2,126.6,25.6,125.1z"/>
		<path class="st1" d="M23,42.1l0.7,1.5c4-2.8,8.1-3.3,12.1-1.2l1.2-1.5C32.4,37.7,26.6,37.6,23,42.1z"/>
		<path class="st1" d="M25.6,125.1c0.8-0.6,1.7-1.2,2.6-1.8C27.2,123.7,26.4,124.3,25.6,125.1z"/>
		<path class="st1" d="M53.6,57.6l1.2,1.5c3.7-4.2,7.9-3.7,12.1,1.2l0.7-1.5C63.4,52.3,57.7,52.8,53.6,57.6z"/>
		<path class="st2" d="M70.2,109.2c-0.3-0.2-0.6-0.5-0.9-0.7C69.6,108.7,69.9,108.9,70.2,109.2z"/>
	</g>
</g>
</svg>
