<?xml version="1.0" encoding="UTF-8" standalone="no"?>
<!-- Generator: Adobe Illustrator 17.0.0, SVG Export Plug-In . SVG Version: 6.00 Build 0)  -->

<svg
   xmlns:dc="http://purl.org/dc/elements/1.1/"
   xmlns:cc="http://creativecommons.org/ns#"
   xmlns:rdf="http://www.w3.org/1999/02/22-rdf-syntax-ns#"
   xmlns:svg="http://www.w3.org/2000/svg"
   xmlns="http://www.w3.org/2000/svg"
   xmlns:sodipodi="http://sodipodi.sourceforge.net/DTD/sodipodi-0.dtd"
   xmlns:inkscape="http://www.inkscape.org/namespaces/inkscape"
   version="1.1"
   id="Ebene_1"
   x="0px"
   y="0px"
   width="183.10556"
   height="199.59111"
   viewBox="0 0 183.10555 199.59111"
   enable-background="new 0 0 595.28 841.89"
   xml:space="preserve"
   inkscape:version="0.91 r13725"
   sodipodi:docname="ese_logo_2016.svg"><metadata
     id="metadata56"><rdf:RDF><cc:Work
         rdf:about=""><dc:format>image/svg+xml</dc:format><dc:type
           rdf:resource="http://purl.org/dc/dcmitype/StillImage" /><dc:title /></cc:Work></rdf:RDF></metadata><defs
     id="defs54" /><sodipodi:namedview
     pagecolor="#ffffff"
     bordercolor="#666666"
     borderopacity="1"
     objecttolerance="10"
     gridtolerance="10"
     guidetolerance="10"
     inkscape:pageopacity="0"
     inkscape:pageshadow="2"
     inkscape:window-width="1920"
     inkscape:window-height="1023"
     id="namedview52"
     showgrid="false"
     inkscape:zoom="4"
     inkscape:cx="122.66991"
     inkscape:cy="95.163776"
     inkscape:window-x="0"
     inkscape:window-y="0"
     inkscape:window-maximized="1"
     inkscape:current-layer="g42"
     fit-margin-top="3"
     fit-margin-left="3"
     fit-margin-right="3"
     fit-margin-bottom="3" /><g
     id="_x32_011_Pfad"
     display="none"
     style="display:none"
     transform="translate(-200.99601,-321.96189)"><path
       display="inline"
       d="m 224.053,518.132 -19.852,0 0,-46.213 19.723,0 0,5.93 -9.572,0 0,12.504 8.637,0 0,5.607 -8.637,0 0,16.242 9.701,0 0,5.93 z"
       id="path4"
       inkscape:connector-curvature="0"
       style="display:inline;fill:#fdc412" /><path
       display="inline"
       d="m 227.148,499.634 9.217,0 0,10.603 c 0,1.053 0.639,1.579 1.918,1.579 1.234,0 1.852,-0.526 1.852,-1.579 l 0,-5.479 c 0,-1.676 -1.117,-3.642 -3.352,-5.897 -4.318,-4.19 -7.004,-7.004 -8.057,-8.443 -1.053,-1.439 -1.578,-3.018 -1.578,-4.737 l 0,-5.188 c 0,-5.994 3.914,-8.991 11.748,-8.991 7.014,0 10.52,2.728 10.52,8.186 l 0,7.992 -9.217,0 0,-8.508 c 0,-0.923 -0.514,-1.386 -1.543,-1.386 -1.205,0 -1.809,0.892 -1.809,2.675 l 0.195,2.997 c 0,1.719 1.141,3.717 3.424,5.994 4.242,4.061 6.939,6.897 8.092,8.508 1.153,1.611 1.729,3.438 1.729,5.478 l 0,5.898 c 0,6.145 -3.928,9.217 -11.779,9.217 -7.574,0 -11.359,-2.792 -11.359,-8.379 l 0,-10.54 z"
       id="path6"
       inkscape:connector-curvature="0"
       style="display:inline;fill:#fdc412" /><path
       display="inline"
       d="m 273.75,518.132 -19.852,0 0,-44.849 7.81,0.667 2.67,2.86 9.243,-2.184 0,3.222 -9.572,0 0,12.504 8.637,0 0,5.607 -8.637,0 0,16.242 9.701,0 0,5.931 z"
       id="path8"
       inkscape:connector-curvature="0"
       style="display:inline;fill:#fdc412" /><path
       display="inline"
       d="m 310.266,518.132 -23.17,0 0,-6.123 11.408,-20.947 c 1.246,-2.277 1.869,-5.392 1.869,-9.346 0,-2.063 -0.688,-3.094 -2.063,-3.094 -1.418,0 -2.127,0.645 -2.127,1.934 l 0,7.928 -9.088,0 0,-8.057 c 0,-2.738 0.81,-4.847 2.43,-6.325 0,0 0.731,0.596 3.503,0.339 4.322,-0.401 11.936,-2.033 12.996,-1.412 0.806,0.472 1.451,1.053 1.936,1.742 1.537,2.182 2.305,5.764 2.305,10.748 0,1.955 -0.332,3.566 -0.998,4.834 l -11.422,21.85 12.42,0 0,5.929 z"
       id="path10"
       inkscape:connector-curvature="0"
       style="display:inline;fill:#fdc412" /><path
       display="inline"
       d="m 313.49,510.236 0,-29.745 c 0,-3.939 1.722,-6.584 5.165,-7.935 1.796,-0.704 12.008,-0.655 13.825,0.147 3.131,1.383 4.697,3.957 4.697,7.723 l 0,29.745 c 0,2.664 -1.101,4.727 -3.305,6.188 -2.201,1.461 -5.031,2.191 -8.49,2.191 -3.566,0 -6.441,-0.72 -8.621,-2.159 -2.181,-1.439 -3.271,-3.491 -3.271,-6.155 z m 13.535,0.484 0,-31.485 c 0,-0.923 -0.547,-1.386 -1.643,-1.386 -1.16,0 -1.74,0.463 -1.74,1.386 l 0,31.485 c 0,0.924 0.58,1.386 1.74,1.386 1.096,-10e-4 1.643,-0.462 1.643,-1.386 z"
       id="path12"
       inkscape:connector-curvature="0"
       style="display:inline;fill:#fdc412" /><path
       display="inline"
       d="m 354.582,518.132 -10.152,0 0,-33.87 -3.867,0 0,-6.735 c 1.475,0 2.717,-0.633 3.732,-1.901 1.014,-1.268 1.521,-2.503 1.521,-3.706 l 8.766,0 0,46.212 z"
       id="path14"
       inkscape:connector-curvature="0"
       style="display:inline;fill:#fdc412" /><path
       display="inline"
       d="m 372.146,518.132 -10.15,0 0,-33.87 -3.867,0 0,-6.735 c 1.473,0 2.717,-0.633 3.73,-1.901 1.014,-1.268 1.522,-2.503 1.522,-3.706 l 8.766,0 0,46.212 z"
       id="path16"
       inkscape:connector-curvature="0"
       style="display:inline;fill:#fdc412" /></g><g
     id="Avatar_1_"
     transform="translate(-200.99601,-321.96189)"><path
       d="m 341.965,474.31 c 2.097,-0.452 5.31,-2.059 6.747,-3.781 5.941,-7.436 0.444,-23.998 -13.413,-42.606 -6.853,-9.21 -24.945,-10.04 -27.319,4.445 0.383,-4.321 1.6,-8.125 3.33,-11.73 1.515,-1.01 2.803,-2.138 3.842,-3.362 0.179,-0.074 0.341,-0.141 0.553,-0.242 4.417,-2.101 12.852,-8.997 12.456,-23.18 2.145,-2.566 3.684,-4.39 6.005,-4.727 -1.977,-0.941 -4.331,-0.673 -6.31,2.123 l -2.124,-4.134 c 1.354,9.642 -1.54,20.967 -7.512,25.513 -0.173,0.131 -0.377,0.294 -0.591,0.473 2.326,-6.379 -0.893,-13.98 -11.155,-19.616 17.3,15.662 4.133,28.702 -12.283,30.003 -20.378,1.607 -36.899,-25.277 -7.582,-32.807 -6.775,-0.463 -11.874,2.214 -14.962,6.254 -0.163,-2.482 -0.849,-4.243 -2.85,-4.814 -2.905,-0.826 -4.212,1 -4.194,0.875 -0.06,-1.052 -0.658,-1.739 -1.835,-1.794 -0.048,-3.748 0.41,-7.427 0.903,-10.946 l -2.434,6.866 c -2.355,-1.667 -5.225,-2.975 -7.577,-1.466 2.699,0.899 5.122,1.336 7.27,3.903 -0.019,0.674 -0.013,1.315 -0.013,1.959 -0.131,0.041 -0.246,0.069 -0.385,0.121 -2.975,1.112 -5.575,3.008 -7.523,5.355 -0.295,-0.401 -0.57,-0.84 -0.803,-1.352 -3.592,-7.919 -6.974,-26.212 11.671,-18.582 1.409,3.329 4.043,5.108 6.71,7.204 -2.104,-16.891 1.214,-31.015 7.784,-27.25 10.973,-9.407 15.465,2.658 16.082,23.018 6.095,-8.458 7.513,-14.505 6.938,-24.122 4.021,2.268 8.764,6.001 12.664,10.58 -3.501,-1.576 -7.659,-0.867 -11.132,1.609 l 1.262,1.625 c 4.215,-2.289 8.611,-1.746 12.825,1.265 l 0.155,-0.353 c 3.329,5.084 5.327,10.858 4.353,16.675 l 7.203,-7.581 c 11.051,-2.712 11.097,12.351 7.649,19.947 -2.127,4.684 -7.13,4.508 -9.346,3.954 l -1.035,2.288 c 6.088,1.803 11.829,-3.704 13.083,-6.657 3.824,-9.016 0.593,-19.73 -5.38,-21.146 1.004,-9.275 -0.054,-19.115 -2.91,-24.739 2.71,-1.566 5.359,0.964 10.479,4.877 -10.228,-20.088 -25.415,-31.232 -45.884,-21.497 -2.167,-5.878 -0.22,-9.588 5.831,-11.139 l 3.079,-0.524 c -7.184,-0.915 -25.961,2.748 -28.165,15.331 -6.775,-2.954 -14.199,-4.267 -21.811,-5.115 l 11.579,8.751 c -11.287,2.168 -16.31,12.147 -19.176,21.893 3.624,-4.386 9.398,-8.453 10.501,-7.164 -1.523,2.774 -2.563,13.032 -1.846,14.658 -9.459,-0.99 -9.938,12.168 -5.864,21.777 0.395,0.929 1.258,2.104 2.415,3.23 -2.872,4.339 -3.591,9.86 -0.53,15.014 2.704,4.554 8.515,6.243 8.575,11.686 l -0.647,-0.358 c -15.529,29.825 -8.669,40.811 -5.779,43.7 1.953,1.952 5.775,4.912 9.487,5.877 2.766,0.719 4.921,0.698 7.266,0.163 -0.033,1.434 1.53,2.834 3.754,2.855 2.227,0.021 7.85,-1.561 11.167,-3.883 1.267,0.229 9.086,1.011 12.392,-0.605 0.073,0.882 0.073,3.967 0.073,3.967 0,0 10.558,-1.401 11.679,-1.485 1.337,-0.101 4.398,-0.465 5.393,-0.57 0.994,-0.105 3.719,-0.615 8.567,-0.383 6.106,0.294 15.028,0.769 18.648,-0.124 M 250.65,360.685 c 4.57,-13.891 12.715,-15.388 17.448,-16.305 l -8.161,-6.305 c 5.307,0.872 13.109,2.766 18.522,5.686 1.17,-12.098 12.874,-16.439 20.424,-17.746 l 0.883,-0.151 c -6.407,1.531 -9.177,4.944 -5.473,13.965 16.758,-9.889 33.707,-1.387 44.977,16.44 -3.906,-4.528 -5.893,-4.774 -10.293,-3.794 2.959,5.223 3.675,19.811 2.484,25.555 -1.363,0.196 -2.823,0.853 -4.345,2.066 l -3.012,1.147 c -3.367,-12.456 -13.408,-21.186 -23.819,-28.013 0.75,10.671 -1.046,18.646 -3.921,22.588 -0.385,-24.531 -10.466,-29.538 -18.15,-20.696 -6.163,-4.415 -12.216,3.721 -9.968,23.851 -2.153,-0.526 -3.251,-1.929 -5.405,-8.342 -0.067,2.591 0.296,4.594 0.95,6.229 -2.29,-1.436 -4.311,-2.386 -6.085,-2.921 -0.616,-7.22 0.359,-13.132 1.874,-17.674 -4.276,-0.024 -5.225,1.46 -8.93,4.42 z m 29.225,77.066 c 0.011,-1.219 0.011,-2.466 0,-3.728 l -2.06,-0.878 c 0.713,-1.071 1.309,-2.121 1.784,-3.151 0.373,2.408 0.489,4.973 0.276,7.757 z m -22.333,31.069 c -11.705,-10.639 -4.41,-29.605 4.692,-42.402 l -0.755,-0.423 c 0.36,-6.349 -6.252,-8.944 -9.442,-13.658 -4.203,-6.212 2.969,-17.639 9.227,-19.418 2.373,0 -1.728,7.931 -1.945,10.843 1.89,-2.267 4.942,-9.395 7.121,-9.711 3.577,-0.518 4.276,1.337 4.133,4.478 -4.39,7.444 -2.733,18.216 6.776,23.609 0.514,1.228 0.978,2.474 1.355,3.765 -0.353,2.027 -1.313,4.162 -2.899,6.383 l -11.467,-4.895 13.106,7.93 c 0.086,4.4 0.032,8.392 -0.136,12.035 -4.778,0.661 -9.585,6.809 -13.455,9.651 -4.25,3.105 -2.916,11.435 2.425,6.796 -3.284,3.858 -1.113,9.763 4.256,8.362 -3.264,2.627 -7.627,1.529 -12.992,-3.345 z m 40.096,2.031 c -3.712,1.222 -8.297,1.574 -12.586,1.04 -2.534,1.456 -4.968,2.997 -7.604,3.725 -9.175,2.53 -5.694,-4.532 4.692,-11.975 -3.725,2.478 -4.069,3.907 -10.359,6.472 -5.959,2.43 -7.969,-1.908 -2.788,-7.905 -1.209,0.785 -2.642,1.386 -4.493,1.595 -9.023,1.016 9.586,-17.261 15.212,-14.242 6.631,3.556 12.281,4.576 18.057,5.977 l -0.131,15.313 z m 39.283,1.036 c -16.263,-0.84 -16.046,-1.775 -36.792,2.081 l 0,-21.058 c 26.257,0.071 26.777,-7.413 21.104,-12.004 5.607,4.793 -4.216,11.329 -23.418,9.459 l -0.026,2.673 c -3.582,0.144 -8.689,-2.039 -17.754,-5.42 -0.176,-0.065 -0.352,-0.094 -0.528,-0.139 0.173,-2.473 0.283,-5.072 0.336,-7.784 1.949,-5.346 2.483,-9.452 1.051,-15.685 -0.007,-0.094 -0.021,-0.184 -0.029,-0.273 2.514,0.907 5.403,1.511 8.734,1.689 7.098,0.373 13.083,-0.674 17.724,-2.645 -1.957,7.393 -1.402,11.766 0.904,17.868 -0.091,-0.634 -0.131,-1.227 -0.189,-1.832 0.982,-17.395 19.022,-18.457 27.03,-7.891 22.022,29.077 11.807,41.469 1.853,40.961 z"
       id="path19"
       inkscape:connector-curvature="0"
       style="fill:#fdc412" /><path
       d="m 270.99,386.797 0.725,1.626 c 4.454,-5.177 8.849,-5.72 12.823,-1.265 l 1.267,-1.626 c -4.397,-5.119 -10.419,-5.66 -14.815,1.265 z"
       id="path21"
       inkscape:connector-curvature="0"
       style="fill:#fdc412" /><path
       d="m 273.888,457.762 c -2.053,1.53 -3.673,3.034 -4.895,4.445 1.943,-1.265 3.317,-3.002 4.895,-4.445 z"
       id="path23"
       inkscape:connector-curvature="0"
       style="fill:#fdc412" /><path
       d="m 271.124,369.681 0.725,1.625 c 4.214,-3.01 8.613,-3.553 12.824,-1.264 l 1.267,-1.626 c -4.817,-3.433 -10.962,-3.493 -14.816,1.265 z"
       id="path25"
       inkscape:connector-curvature="0"
       style="fill:#fdc412" /><path
       d="m 273.888,457.762 c 0.845,-0.626 1.753,-1.26 2.749,-1.892 -1.051,0.475 -1.926,1.144 -2.749,1.892 z"
       id="path27"
       inkscape:connector-curvature="0"
       style="fill:#fdc412" /><path
       d="m 303.6,386.119 1.262,1.625 c 3.975,-4.454 8.372,-3.912 12.825,1.264 l 0.726,-1.625 C 314.016,380.46 307.995,381 303.6,386.119 Z"
       id="path29"
       inkscape:connector-curvature="0"
       style="fill:#fdc412" /><path
       d="m 321.232,440.906 c -0.289,-0.245 -0.603,-0.488 -0.974,-0.723 0.343,0.234 0.664,0.478 0.974,0.723 z"
       id="path31"
       inkscape:connector-curvature="0"
       style="fill:#fdc412" /></g><g
     id="ESE_2015"
     transform="translate(-200.99601,-321.96189)"><g
       id="g34"
       transform="matrix(1,0,0,0.98641899,0,6.6214756)"><path
         d="m 223.848,518.132 -19.852,0 0,-46.213 19.723,0 0,5.93 -9.571,0 0,12.504 8.637,0 0,5.607 -8.637,0 0,16.242 9.7,0 0,5.93 z"
         id="path36"
         inkscape:connector-curvature="0"
         style="fill:#fdc412" /><path
         d="m 227.075,499.634 9.217,0 0,10.603 c 0,1.053 0.639,1.579 1.918,1.579 1.235,0 1.853,-0.526 1.853,-1.579 l 0,-5.479 c 0,-1.676 -1.117,-3.642 -3.352,-5.897 -4.318,-4.189 -7.004,-7.004 -8.057,-8.443 -1.053,-1.439 -1.579,-3.019 -1.579,-4.737 l 0,-5.188 c 0,-5.994 3.916,-8.991 11.748,-8.991 7.014,0 10.521,2.729 10.521,8.186 l 0,7.992 -9.217,0 0,-8.508 c 0,-0.924 -0.515,-1.386 -1.544,-1.386 -1.205,0 -1.807,0.892 -1.807,2.675 l 0.194,2.997 c 0,1.719 1.141,3.717 3.424,5.994 4.243,4.061 6.94,6.896 8.092,8.508 1.152,1.611 1.728,3.438 1.728,5.479 l 0,5.897 c 0,6.145 -3.927,9.217 -11.779,9.217 -7.573,0 -11.359,-2.793 -11.359,-8.379 l 0,-10.54 z"
         id="path38"
         inkscape:connector-curvature="0"
         style="fill:#fdc412" /><path
         d="m 273.809,518.132 -19.852,0 0,-46.213 19.723,0 0,5.93 -9.571,0 0,12.504 8.637,0 0,5.607 -8.637,0 0,16.242 9.7,0 0,5.93 z"
         id="path40"
         inkscape:connector-curvature="0"
         style="fill:#fdc412" /></g><g
       id="g42"
       transform="matrix(1,0,0,1.0043279,0,-2.6632472)"><path
         d="m 310.271,518.551 -23.171,0 0,-6.06785 11.408,-20.75834 c 1.246,-2.25649 1.87,-5.34443 1.87,-9.26182 0,-2.04442 -0.688,-3.06614 -2.063,-3.06614 -1.418,0 -2.127,0.6392 -2.127,1.91659 l 0,7.85659 -9.088,0 0,-7.98443 c 0,-5.8974 3.824,-8.8466 11.473,-8.8466 4.726,0 7.858,1.08117 9.394,3.24154 1.536,2.16235 2.305,5.71208 2.305,10.6512 0,1.93739 -0.334,3.53388 -0.999,4.79046 l -11.422,21.6532 12.421,0 0,5.8756 z"
         id="path44"
         inkscape:connector-curvature="0"
         style="fill:#fdc412" /><path
         d="m 313.496,510.38427 0,-29.21459 c 0,-5.88712 3.984,-8.83068 11.956,-8.83068 7.819,0 11.73,2.92293 11.73,8.76782 l 0,29.21459 c 0,2.6165 -1.102,4.64271 -3.304,6.07766 -2.202,1.43495 -5.032,2.15193 -8.491,2.15193 -3.566,0 -6.44,-0.70716 -8.621,-2.1205 -2.181,-1.41334 -3.27,-3.42973 -3.27,-6.04623 z m 13.535,0.47537 0,-30.92357 c 0,-0.90752 -0.548,-1.36128 -1.644,-1.36128 -1.16,0 -1.74,0.45376 -1.74,1.36128 l 0,30.92357 c 0,0.90752 0.58,1.36129 1.74,1.36129 1.096,-9.9e-4 1.644,-0.45377 1.644,-1.36129 z"
         id="path46"
         inkscape:connector-curvature="0"
         style="fill:#fdc412" /><path
         d="m 354.586,518.551 -10.151,0 0,-33.87 -3.867,0 0,-6.735 c 1.474,0 2.718,-0.634 3.731,-1.901 1.013,-1.267 1.521,-2.503 1.521,-3.706 l 8.766,0 0,46.212 z"
         id="path48"
         inkscape:connector-curvature="0"
         style="fill:#fdc412" /><text
         transform="scale(1.0090368,0.99104414)"
         font-size="66"
         id="text50"
         style="font-size:65.40905762px;font-family:Haettenschweiler;fill:#fdc412"
         x="353.92667"
         y="522.82184">6</text>
</g></g></svg>