<?xml version="1.0" standalone="no"?>
<!DOCTYPE svg PUBLIC "-//W3C//DTD SVG 20010904//EN"
 "http://www.w3.org/TR/2001/REC-SVG-20010904/DTD/svg10.dtd">
<svg version="1.0" xmlns="http://www.w3.org/2000/svg"
 width="611.000000pt" height="611.000000pt" viewBox="0 0 611.000000 611.000000"
 preserveAspectRatio="xMidYMid meet">
<metadata>
Created by potrace 1.11, written by Peter Selinger 2001-2013
</metadata>
<g transform="translate(0.000000,611.000000) scale(0.100000,-0.100000)"
fill="#000000" stroke="none">
<path d="M3058 6045 c-2 -2 -25 -5 -53 -9 -95 -11 -130 -18 -213 -42 -330 -95
-543 -259 -613 -469 -13 -38 -25 -72 -26 -73 -1 -2 -55 15 -120 38 -191 67
-447 122 -683 146 l-55 6 150 -113 c255 -192 290 -220 285 -227 -3 -3 -42 -19
-87 -34 -254 -85 -442 -291 -576 -633 -19 -49 -42 -114 -51 -144 l-16 -54 82
82 c90 91 181 160 251 191 49 22 82 18 71 -9 -10 -25 -32 -112 -39 -151 -3
-19 -7 -46 -10 -60 -12 -71 -18 -145 -19 -237 -1 -96 -2 -103 -21 -104 -62 -4
-84 -8 -120 -23 -173 -73 -228 -359 -135 -692 30 -105 55 -160 100 -221 l39
-51 -29 -54 c-80 -147 -82 -339 -7 -498 25 -53 56 -90 163 -195 143 -141 178
-187 189 -254 6 -37 5 -43 -8 -38 -11 4 -32 -31 -85 -142 -137 -287 -238 -569
-278 -776 -2 -11 -6 -31 -9 -45 -27 -135 -27 -382 -1 -485 44 -170 126 -281
291 -390 147 -97 255 -130 404 -123 l96 5 15 -31 c8 -16 27 -39 42 -50 67 -49
274 -10 455 84 73 39 81 41 138 35 126 -13 329 -4 383 16 40 15 42 11 42 -67
l0 -76 28 6 c15 3 51 8 81 11 30 4 61 8 70 10 9 1 43 6 76 9 33 4 71 8 85 11
31 5 96 12 180 20 36 3 110 12 165 20 72 10 159 12 315 8 389 -10 661 -8 725
6 81 17 191 71 248 121 54 47 100 136 115 220 10 55 9 229 -2 285 -4 17 -9 44
-12 60 -11 52 -61 207 -94 290 -118 298 -436 810 -587 944 -63 57 -189 123
-278 147 -34 9 -109 18 -173 19 -94 3 -125 -1 -185 -19 -154 -48 -259 -142
-317 -285 -26 -63 -24 -40 4 70 42 160 79 238 133 284 27 22 63 55 82 73 19
18 53 43 75 54 125 63 276 219 346 357 l31 61 67 -4 c118 -7 241 41 338 132
72 67 101 109 129 189 33 96 36 111 42 248 5 102 2 134 -16 205 -39 157 -114
270 -205 311 l-40 18 -2 263 c0 145 -4 279 -8 298 -4 19 -16 81 -27 138 -11
56 -33 141 -50 188 -17 47 -28 88 -24 92 4 4 29 6 56 5 58 -1 103 -25 243
-131 55 -42 96 -67 93 -58 -4 10 -35 66 -68 124 -428 745 -974 1002 -1609 758
-47 -18 -92 -36 -101 -40 -22 -10 -38 37 -45 134 -6 69 -4 79 23 130 47 89
151 152 276 166 87 10 73 21 -28 21 -52 0 -96 -1 -97 -2z m-105 -78 c-60 -32
-99 -69 -125 -119 -39 -74 -28 -223 27 -354 l13 -31 98 48 c272 132 549 150
819 53 105 -38 253 -118 349 -191 78 -58 234 -206 296 -279 53 -62 159 -208
155 -212 -2 -3 -25 14 -50 36 -70 61 -118 73 -255 63 -37 -2 -56 -17 -43 -33
8 -10 43 -104 48 -128 1 -3 4 -18 8 -35 11 -44 16 -74 23 -125 3 -25 8 -54 10
-65 24 -122 24 -585 0 -624 -3 -5 -21 -12 -40 -15 -19 -4 -57 -21 -83 -39 -26
-18 -73 -42 -105 -54 l-56 -22 -32 92 c-97 282 -299 544 -608 793 -87 69 -240
180 -287 206 -7 4 -9 -52 -8 -160 1 -149 -3 -204 -22 -347 -16 -109 -100 -345
-124 -345 -7 0 -11 24 -12 58 -1 31 -2 71 -4 87 -6 72 -17 168 -21 188 -2 12
-6 39 -9 62 -25 171 -105 361 -194 458 -114 124 -291 117 -435 -16 l-50 -46
-37 20 c-136 69 -267 -36 -328 -263 -19 -67 -25 -100 -36 -198 -10 -92 -3
-460 10 -481 12 -19 -15 -17 -46 4 -42 28 -90 106 -130 214 -18 46 -34 83 -36
83 -9 0 7 -138 21 -184 l13 -44 -97 47 c-53 26 -106 50 -118 53 -20 6 -22 13
-23 85 -4 236 15 393 65 564 l15 49 -38 0 c-71 0 -133 -27 -218 -95 -46 -36
-85 -65 -87 -65 -7 0 41 115 76 185 80 158 189 276 320 348 55 30 179 74 238
83 22 4 38 10 35 14 -2 4 -60 49 -127 101 -68 51 -125 96 -128 99 -3 3 -16 14
-30 24 l-25 17 25 -5 c292 -59 513 -126 652 -197 22 -11 42 -18 44 -16 3 2 7
22 9 43 12 96 68 219 141 311 96 120 257 222 456 288 121 40 163 45 101 12z
m-354 -1077 c51 -25 94 -78 136 -165 30 -63 70 -188 81 -251 2 -13 8 -50 14
-82 5 -31 12 -77 15 -102 2 -25 7 -65 10 -90 7 -66 14 -166 16 -242 1 -38 5
-68 8 -68 9 0 94 134 140 220 53 99 103 247 116 340 2 14 6 45 10 70 4 25 7
105 7 177 l-1 133 57 -36 c63 -40 161 -112 177 -129 6 -6 21 -19 35 -28 35
-24 200 -189 200 -200 0 -5 -8 -6 -17 -2 -42 16 -160 17 -221 1 -62 -16 -164
-65 -169 -82 -1 -5 8 -21 20 -36 l22 -28 70 25 c111 39 230 32 333 -19 129
-63 124 -58 180 -170 77 -156 111 -296 106 -443 l-4 -88 44 48 c24 26 89 95
145 153 l102 106 67 1 c87 1 138 -15 184 -57 71 -66 109 -173 113 -326 5 -163
-43 -368 -105 -453 -56 -76 -142 -117 -244 -117 -72 0 -99 9 -91 29 21 54 43
203 45 301 1 64 2 66 53 123 57 63 131 117 161 117 34 0 3 21 -39 26 -53 6
-101 -12 -150 -57 l-41 -38 -35 70 c-35 74 -51 95 -43 57 3 -13 5 -81 5 -153
1 -254 -60 -493 -168 -665 -36 -57 -106 -135 -135 -151 -15 -8 -15 -5 -6 29 6
20 11 67 11 103 0 219 -135 411 -411 586 l-57 36 60 -64 c83 -87 125 -142 173
-223 218 -364 6 -727 -503 -861 -139 -37 -352 -43 -474 -15 -213 51 -409 177
-529 340 -203 278 -155 578 123 767 85 57 135 81 260 125 l110 39 -95 -5
c-106 -5 -130 -9 -208 -36 -79 -28 -156 -76 -222 -141 l-58 -55 -7 42 c-13 92
-94 157 -180 144 -24 -4 -54 -14 -67 -22 -23 -15 -25 -15 -35 13 -7 17 -21 31
-37 35 -26 6 -26 6 -21 93 3 47 7 106 9 131 2 25 7 77 10 115 l6 70 -20 -55
c-11 -30 -32 -85 -46 -122 l-26 -68 -41 28 c-74 50 -164 66 -230 40 -28 -11
-26 -12 63 -44 136 -48 196 -99 198 -166 1 -23 -1 -39 -4 -35 -18 18 -204 -99
-271 -171 -32 -34 -34 -35 -48 -16 -23 30 -75 180 -100 289 -31 133 -30 316 1
385 72 158 210 191 466 111 62 -20 68 -25 97 -74 34 -60 85 -116 156 -173 93
-74 85 -72 80 -23 -59 584 33 1025 218 1046 25 3 54 0 66 -7 19 -10 31 -6 91
36 119 81 205 97 289 54z m-1001 -1552 c2 -22 -16 -94 -48 -193 -28 -87 -49
-165 -48 -174 2 -9 41 47 87 124 105 177 140 221 191 236 55 17 114 -1 134
-39 27 -52 29 -108 6 -159 -49 -109 -83 -256 -74 -322 2 -14 5 -51 8 -82 16
-175 132 -357 297 -466 52 -34 59 -43 82 -108 24 -70 24 -71 7 -125 -17 -56
-57 -140 -82 -173 -13 -18 -16 -18 -65 2 -28 11 -70 29 -94 39 -124 56 -301
130 -293 122 5 -4 90 -58 189 -118 99 -60 209 -127 245 -149 l65 -40 -1 -232
0 -233 -59 -20 c-86 -29 -145 -70 -299 -212 -49 -44 -118 -106 -154 -136 -82
-68 -113 -125 -115 -206 -2 -110 59 -162 137 -116 l34 20 -20 -46 c-27 -60
-25 -132 4 -185 31 -55 65 -77 129 -86 l54 -8 -39 -17 c-119 -53 -288 14 -463
182 -147 142 -217 320 -217 552 0 122 9 189 44 326 58 223 188 497 343 723 25
37 28 46 16 55 -8 6 -15 30 -17 53 -6 105 -47 166 -229 343 -158 154 -187 204
-186 320 1 164 90 346 237 483 51 47 161 110 180 104 6 -2 12 -19 14 -39z
m1766 -1198 c-41 -176 -37 -340 12 -514 33 -118 40 -128 39 -58 -2 82 29 212
71 299 84 176 262 286 459 284 130 -1 238 -33 343 -100 87 -57 134 -102 211
-205 537 -719 635 -1330 243 -1524 l-76 -37 -131 1 c-71 1 -191 5 -265 10
-168 11 -462 12 -554 1 -82 -9 -284 -39 -356 -52 -14 -3 -39 -7 -56 -10 -17
-2 -66 -12 -110 -20 -43 -8 -82 -15 -86 -15 -5 0 -8 184 -8 410 l0 410 38 1
c266 7 397 18 551 49 178 36 312 108 340 183 25 65 1 147 -59 202 l-33 30 21
-30 c102 -144 -118 -292 -493 -332 -80 -8 -349 -9 -412 -1 -47 6 -44 9 -47
-62 l-2 -35 -54 2 c-30 2 -94 14 -143 28 -68 20 -359 125 -499 180 -14 6 -16
19 -12 98 10 192 13 214 33 275 35 107 50 217 46 344 -2 65 -6 122 -9 127 -4
5 -9 28 -12 51 -6 39 -5 41 14 31 11 -6 41 -15 68 -22 92 -20 130 -27 189 -34
67 -7 286 -7 355 0 82 9 225 40 310 68 41 14 78 25 82 26 3 1 0 -26 -8 -59z
m-1062 -312 c2 -32 3 -58 1 -58 -15 0 -74 31 -71 37 54 114 63 117 70 21z m72
-713 c132 -62 267 -107 460 -155 87 -22 161 -42 164 -45 3 -3 5 -69 4 -147 0
-79 -1 -211 -1 -295 l-1 -151 -92 -23 c-75 -18 -124 -23 -254 -24 -159 -1
-161 -1 -210 -31 -103 -63 -235 -115 -324 -128 -36 -5 -109 9 -111 22 -8 50
-4 66 29 121 37 60 98 129 166 189 40 35 39 43 -3 13 -85 -61 -257 -132 -322
-134 -113 -4 -147 80 -84 209 28 57 70 104 208 232 37 34 67 65 67 68 0 9 -96
-74 -153 -132 -75 -77 -196 -122 -274 -102 -28 7 -33 13 -33 40 0 53 41 118
139 220 145 152 300 259 421 292 72 19 87 17 204 -39z"/>
<path d="M2152 4425 c-63 -19 -144 -72 -179 -116 -10 -12 -10 -24 -2 -48 6
-17 12 -31 14 -31 2 0 36 18 77 39 93 49 161 65 252 58 66 -5 93 -12 154 -40
20 -10 26 -7 47 19 13 16 23 33 22 38 -5 14 -113 67 -171 82 -60 17 -155 16
-214 -1z"/>
<path d="M2192 3815 c-80 -18 -174 -89 -223 -169 -16 -27 -16 -32 -3 -58 l15
-29 54 49 c148 135 283 148 403 39 l43 -41 29 31 30 31 -47 47 c-55 54 -151
104 -209 108 -22 2 -64 -2 -92 -8z"/>
<path d="M3420 3784 c-53 -19 -113 -59 -157 -104 l-32 -33 22 -28 c11 -16 25
-29 30 -29 5 0 29 18 54 39 119 105 260 89 396 -45 l55 -52 11 24 c19 42 13
58 -44 122 -98 107 -220 146 -335 106z"/>
<path d="M2103 864 l-28 -25 33 22 c17 13 32 24 32 26 0 8 -11 1 -37 -23z"/>
<path d="M2351 580 c-13 -11 -19 -20 -14 -20 6 0 18 9 28 20 23 25 17 25 -14
0z"/>
<path d="M2269 513 c-13 -16 -12 -17 4 -4 16 13 21 21 13 21 -2 0 -10 -8 -17
-17z"/>
</g>
</svg>
